<svg xmlns="http://www.w3.org/2000/svg" viewBox="0 0 64 64">
  <defs>
    <linearGradient id="pin" x1="0" y1="0" x2="1" y2="1">
      <stop stop-color="#13b8b0"/>
      <stop offset="1" stop-color="#087d86"/>
    </linearGradient>
  </defs>
  <circle cx="19" cy="19" r="10" fill="#f4a019"/>
  <g stroke="#f4a019" stroke-width="3" stroke-linecap="round">
    <path d="M19 3v4M19 31v4M3 19h4M31 19h4M8 8l3 3M27 27l3 3M30 8l-3 3M11 27l-3 3"/>
  </g>
  <path d="M43 9c-9 0-16 7-16 16 0 12 16 28 16 28s16-16 16-28c0-9-7-16-16-16Z" fill="url(#pin)" stroke="#fff" stroke-width="2"/>
  <circle cx="43" cy="25" r="6" fill="#fff"/>
  <path d="M5 52c12-11 25-12 38-7 5 2 10 2 16-1-10 11-25 15-40 12-5-1-10-2-14-4Z" fill="#075267"/>
  <path d="M14 51c9-4 18-4 27-1" fill="none" stroke="#fff" stroke-width="2" stroke-linecap="round" stroke-dasharray="5 5"/>
</svg>
